# xmcd CD database file
#
# Track frame offsets:
#	150
#	13957
#	27769
#	41036
#	52436
#	64849
#	77416
#	89840
#	102674
#	114560
#	126866
#	140363
#	153333
#	164659
#	176372
#	188694
#	200034
#	213329
#	225930
#	238238
#	248858
#
# Disc length: 3466 seconds
#
# Revision: 0
# Processed by: cddbd v1.5.2PL0 Copyright (c) Steve Scherf et al.
# Submitted via: CDex 1.51
#
DISCID=310d8815
DTITLE=SONNY BOY WILLIAMSON - THE CHRONOLOGICAL SONNY BOY WILLIAMSON
DYEAR=1951
DGENRE=Blues
TTITLE0=Eyesight To The Blind
TTITLE1=Crazy About You Baby
TTITLE2=Stop Crying
TTITLE3=Do It You Wanta
TTITLE4=Cool, Cool Blues
TTITLE5=Comme On Back Home
TTITLE6=I Cross My Heart
TTITLE7=West Memphis Blues
TTITLE8=Sonny Boy's Christmas
TTITLE9=Pontiac Blues
TTITLE10=Mighty Long Time
TTITLE11=Nine Below Zero
TTITLE12=She Brought Life Back To The Dead
TTITLE13=Too Close Together
TTITLE14=Stop Now Baby
TTITLE15=Mr. Down Child
TTITLE16=Cat Hop
TTITLE17=She's Crazy
TTITLE18=309
TTITLE19=Sonny's Rythm
TTITLE20=City Of New Orleans
EXTD=YEAR: 1951
EXTT0=
EXTT1=
EXTT2=
EXTT3=
EXTT4=
EXTT5=
EXTT6=
EXTT7=
EXTT8=
EXTT9=
EXTT10=
EXTT11=
EXTT12=
EXTT13=
EXTT14=
EXTT15=
EXTT16=
EXTT17=
EXTT18=
EXTT19=
EXTT20=
PLAYORDER=
